/* XPM */
static char * closepr_xpm[] = {
"18 18 16 1",
" 	c None",
".	c #444851",
"+	c #48484A",
"@	c #535353",
"#	c #5B5B5B",
"$	c #5D5D5D",
"%	c #5F5F5F",
"&	c #777777",
"*	c #838383",
"=	c #888888",
"-	c #606060",
";	c #757575",
">	c #FFFFFF",
",	c #AEAEAE",
"'	c #B5B5B5",
")	c #D1D1D1",
"..................",
"..................",
"..................",
"..................",
".....+@#$#@+......",
"....+%&*=*&-+.....",
"....@;>,',>;@.....",
"....#*,>)>,*#.....",
"....$=')>)'=$.....",
"....#*,>)>,*#.....",
"....@;>,',>;@.....",
"....+%&*=*&%+.....",
".....+@#$#@+......",
"..................",
"..................",
"..................",
"..................",
".................."};
