/* XPM */
static char * maxpr_xpm[] = {
"18 18 13 1",
" 	c None",
".	c #444851",
"+	c #585859",
"@	c #5F5F5F",
"#	c #6C6C6C",
"$	c #828282",
"%	c #8D8D8D",
"&	c #929292",
"*	c #B2B2B2",
"=	c #FFFFFF",
"-	c #545557",
";	c #838383",
">	c #D2D2D2",
"..................",
"..................",
"..................",
"..................",
".......+@+........",
"......#$%$#.......",
".....#&*=*&#......",
"....-;*>=>*;-.....",
"....@%=====%@.....",
"....-;*>=>*;-.....",
".....#&*=*&#......",
"......#;%;#.......",
".......+@+........",
"..................",
"..................",
"..................",
"..................",
".................."};
