/* XPM */
static char * maxpr_xpm[] = {
"18 18 18 1",
" 	c None",
".	c #343B42",
"+	c #3C3F43",
"@	c #373C42",
"#	c #4C4C4C",
"$	c #5A5A5A",
"%	c #5F5F5F",
"&	c #515151",
"*	c #6C6C6C",
"=	c #828282",
"-	c #8D8D8D",
";	c #929292",
">	c #B2B2B2",
",	c #FFFFFF",
"'	c #353B41",
")	c #595959",
"!	c #838383",
"~	c #D2D2D2",
"..................",
"..................",
"..................",
"........+.........",
".....@#$%$#@......",
"....@&*=-=*&@.....",
"....#*;>,>;*#.....",
"...')!>~,~>!)'....",
"...+%-,,,,,-%+....",
"...')!>~,~>!)'....",
"....#*;>,>;*#.....",
"....@&*!-!*&@.....",
".....@#$%$#@......",
"........+.........",
"..................",
"..................",
"..................",
".................."};
