/* XPM */
static char * menuiconfcs_xpm[] = {
"18 18 3 1",
" 	c None",
".	c #343B42",
"+	c #FFFFFF",
"..................",
"..................",
"..................",
"..................",
"..................",
"..................",
"......+++++.......",
"..................",
"......+++++.......",
"..................",
"......+++++.......",
"..................",
"..................",
"..................",
"..................",
"..................",
"..................",
".................."};
