/* XPM */
static char * menuiconpr_xpm[] = {
"18 18 21 1",
" 	c None",
".	c #343B42",
"+	c #353B41",
"@	c #4E4E4E",
"#	c #575757",
"$	c #595959",
"%	c #535353",
"&	c #6D6D6D",
"*	c #7E7E7E",
"=	c #838383",
"-	c #565656",
";	c #484848",
">	c #666666",
",	c #FFFFFF",
"'	c #4C4C4C",
")	c #707070",
"!	c #979797",
"~	c #B1B1B1",
"{	c #BABABA",
"]	c #737373",
"^	c #747474",
"..................",
"..................",
"..................",
"..................",
".....+@#$#@+......",
".....%&*=*&-......",
"....;>,,,,,>;.....",
"....')!~{~!)'.....",
"....@],,,,,^@.....",
"....')!~{~!)'.....",
"....;>,,,,,>;.....",
".....%&*=*&%......",
".....+@#$#@+......",
"..................",
"..................",
"..................",
"..................",
".................."};
