/* XPM */
static char * menuiconpr_xpm[] = {
"18 18 16 1",
" 	c None",
".	c #444851",
"+	c #4E5054",
"@	c #545557",
"#	c #6D6D6D",
"$	c #7E7E7E",
"%	c #838383",
"&	c #4B4D53",
"*	c #666666",
"=	c #FFFFFF",
"-	c #707070",
";	c #979797",
">	c #B1B1B1",
",	c #BABABA",
"'	c #737373",
")	c #747474",
"..................",
"..................",
"..................",
"..................",
".......+@+........",
"......#$%$#&......",
".....*=====*......",
".....-;>,>;-......",
".....'=====)......",
".....-;>,>;-......",
".....*=====*......",
"......#$%$#.......",
".......+@+........",
"..................",
"..................",
"..................",
"..................",
".................."};
