/* XPM */
static char * minpr_xpm[] = {
"18 18 24 1",
" 	c None",
".	c #343B42",
"+	c #3A3E42",
"@	c #4E4E4E",
"#	c #505050",
"$	c #4D4D4D",
"%	c #5F5F5F",
"&	c #6E6E6E",
"*	c #747474",
"=	c #4F4F4F",
"-	c #4A4A4A",
";	c #646464",
">	c #838383",
",	c #9A9A9A",
"'	c #A2A2A2",
")	c #575757",
"!	c #7B7B7B",
"~	c #A3A3A3",
"{	c #BFBFBF",
"]	c #C8C8C8",
"^	c #383D42",
"/	c #5A5A5A",
"(	c #858585",
"_	c #FFFFFF",
"..................",
"..................",
"..................",
"..................",
"......+@#@+.......",
".....$%&*&%=......",
"....-;>,',>;-.....",
"....)!~{]{~!).....",
"...^/(_____(/^....",
"....)!~{]{~!).....",
"....-;>,',>;-.....",
".....$%&*&%$......",
"......+@#@+.......",
"..................",
"..................",
"..................",
"..................",
".................."};
