/* XPM */
static char * stickfcs_xpm[] = {
"18 18 4 1",
" 	c None",
".	c #343B42",
"+	c #FFFFFF",
"@	c #313131",
"..................",
"..................",
"..................",
"..................",
"..................",
"..................",
".....+++++++......",
".....+@@@@@+......",
".....+@@@@@+......",
".....+@@@@@+......",
".....+@@@@@+......",
".....+++++++......",
"..................",
"..................",
"..................",
"..................",
"..................",
".................."};
