/* XPM */
static char * stuckfcs_xpm[] = {
"18 18 15 1",
" 	c None",
".	c #343B42",
"+	c #3C3F43",
"@	c #4F4F4F",
"#	c #575757",
"$	c #585858",
"%	c #4A4A4A",
"&	c #FFFFFF",
"*	c #3A3E42",
"=	c #5C5C5C",
"-	c #5E5E5E",
";	c #6A6A6A",
">	c #FCFCFC",
",	c #494949",
"'	c #595959",
"..................",
"..................",
"..................",
"..................",
"..................",
".....+@#$#@+......",
"....%&&&&&&&%.....",
"...*=&&&&&&&-+....",
"...%;&&&&&&&;%....",
"...%;&&&&&&&;%....",
"...*=&&&&&>&=*....",
"....%&&&&&&&,.....",
".....+@#'#@+......",
"..................",
"..................",
"..................",
"..................",
".................."};
