/* XPM */
static char * stuckfcs_xpm[] = {
"18 18 13 1",
" 	c None",
".	c #444851",
"+	c #4F4F4F",
"@	c #575757",
"#	c #585858",
"$	c #49494A",
"%	c #FFFFFF",
"&	c #5C5C5C",
"*	c #5E5E5E",
"=	c #6A6A6A",
"-	c #FCFCFC",
";	c #48484A",
">	c #595959",
"..................",
"..................",
"..................",
"..................",
"..................",
"......+@#@+.......",
"....$%%%%%%%$.....",
"....&%%%%%%%*.....",
"...$=%%%%%%%=$....",
"...$=%%%%%%%=$....",
"....&%%%%%-%&.....",
"....$%%%%%%%;.....",
"......+@>@+.......",
"..................",
"..................",
"..................",
"..................",
".................."};
