/* XPM */
static char * close3_xpm[] = {
"16 16 86 1",
" 	c None",
".	c #566781",
"+	c #52627A",
"@	c #53627A",
"#	c #596C89",
"$	c #596C88",
"%	c #5F6E86",
"&	c #68768B",
"*	c #67768B",
"=	c #67768C",
"-	c #68768C",
";	c #5B6C86",
">	c #54647D",
",	c #596B88",
"'	c #52617A",
")	c #60708A",
"!	c #586B88",
"~	c #5F708A",
"{	c #5A6B85",
"]	c #556681",
"^	c #67758B",
"/	c #5F7089",
"(	c #53647D",
"_	c #516179",
":	c #586A88",
"<	c #556782",
"[	c #4E5D73",
"}	c #53637D",
"|	c #586B87",
"1	c #576A87",
"2	c #4E5C73",
"3	c #707987",
"4	c #8A8D93",
"5	c #52637D",
"6	c #516079",
"7	c #66748A",
"8	c #576987",
"9	c #4E5C72",
"0	c #506079",
"a	c #566987",
"b	c #52627C",
"c	c #4D5B72",
"d	c #898D93",
"e	c #4E5B72",
"f	c #52627D",
"g	c #506078",
"h	c #505F78",
"i	c #65738A",
"j	c #556786",
"k	c #556886",
"l	c #51617C",
"m	c #4C5A72",
"n	c #4C5B72",
"o	c #4F5E78",
"p	c #64738A",
"q	c #50607C",
"r	c #4C5A71",
"s	c #898D92",
"t	c #50607B",
"u	c #4E5E78",
"v	c #647289",
"w	c #546786",
"x	c #6F7786",
"y	c #898C92",
"z	c #546785",
"A	c #4E5D78",
"B	c #4E5D77",
"C	c #647189",
"D	c #546685",
"E	c #516280",
"F	c #4B5971",
"G	c #536685",
"H	c #4C5971",
"I	c #637189",
"J	c #4D5D77",
"K	c #5B6B87",
"L	c #536585",
"M	c #536584",
"N	c #5B6B86",
"O	c #4D5C76",
"P	c #596983",
"Q	c #637089",
"R	c #637088",
"S	c #4F607D",
"T	c #4C5B76",
"U	c #4C5C76",
".+@++++++++++.#$",
"+%&*=-&-*-*=-;>,",
"'*)!!!!!!!!!!~{]",
"'^!!!!!!!!!!!!/(",
"_^:<[[}!:}[[<|^_",
"_^12342}5[4321^_",
"6785244924495876",
"07aabc4d44efaa7g",
"hijklmddddnljjih",
"opjqrddrrsdrtjpo",
"uvwrxyrttryxrzvA",
"BCDErFtDGtHFEDvA",
"BIGGGGGGGGGGGGCB",
"JIKLLLMMLMLLMNIJ",
"OPQQQRQIQQQQIQPO",
"STUUUUUTTTUUUTTS"};
