/* XPM */
static char * close_xpm[] = {
"16 16 152 2",
"  	c None",
". 	c #5986CA",
"+ 	c #5079B7",
"@ 	c #5179B7",
"# 	c #6192DD",
"$ 	c #6192DC",
"% 	c #4F78B7",
"& 	c #7098D7",
"* 	c #88ACE4",
"= 	c #87ACE4",
"- 	c #87ACE5",
"; 	c #88ACE5",
"> 	c #6692D6",
", 	c #547EC0",
"' 	c #6191DC",
") 	c #4F77B7",
"! 	c #739DE0",
"~ 	c #5F90DC",
"{ 	c #6090DB",
"] 	c #6090DC",
"^ 	c #5F91DB",
"/ 	c #5F90DB",
"( 	c #729DE0",
"_ 	c #6591D5",
": 	c #5884C9",
"< 	c #4F77B6",
"[ 	c #86ABE4",
"} 	c #5E8FDB",
"| 	c #5F8FDC",
"1 	c #5F8FDB",
"2 	c #5E90DB",
"3 	c #719CDF",
"4 	c #537EBF",
"5 	c #4E76B5",
"6 	c #85AAE3",
"7 	c #5E8EDB",
"8 	c #5885CD",
"9 	c #466BA4",
"0 	c #466BA5",
"a 	c #527CC0",
"b 	c #5886CD",
"c 	c #5E8FDA",
"d 	c #4C76B5",
"e 	c #85A9E3",
"f 	c #5D8DDA",
"g 	c #456AA4",
"h 	c #9EB5D9",
"i 	c #E0E9F7",
"j 	c #466AA4",
"k 	c #517BBF",
"l 	c #507BBF",
"m 	c #456BA4",
"n 	c #5C8EDA",
"o 	c #4D76B5",
"p 	c #4C74B4",
"q 	c #83A8E2",
"r 	c #5C8CD9",
"s 	c #4569A4",
"t 	c #4469A3",
"u 	c #4569A3",
"v 	c #4F7BBE",
"w 	c #5C8CDA",
"x 	c #84A8E2",
"y 	c #4B73B4",
"z 	c #83A7E2",
"A 	c #5B8BD9",
"B 	c #5A8BD9",
"C 	c #4F7ABD",
"D 	c #4368A3",
"E 	c #DFE9F7",
"F 	c #4468A3",
"G 	c #4F7ABE",
"H 	c #4B73B3",
"I 	c #4970B2",
"J 	c #80A4E0",
"K 	c #5887D7",
"L 	c #5788D7",
"M 	c #4C76BC",
"N 	c #4165A2",
"O 	c #DFE8F7",
"P 	c #4166A2",
"Q 	c #5787D6",
"R 	c #81A4E1",
"S 	c #476FB2",
"T 	c #7FA4E0",
"U 	c #5686D6",
"V 	c #4B75BC",
"W 	c #4065A1",
"X 	c #4165A0",
"Y 	c #DFE8F6",
"Z 	c #4065A0",
"` 	c #4B75BB",
" .	c #5685D6",
"..	c #466EB1",
"+.	c #7EA3DF",
"@.	c #5585D6",
"#.	c #4063A0",
"$.	c #9AB0D6",
"%.	c #DEE7F6",
"&.	c #4A74BB",
"*.	c #4064A0",
"=.	c #5585D5",
"-.	c #7FA3DF",
";.	c #466DB1",
">.	c #456DB0",
",.	c #7EA1DF",
"'.	c #5483D4",
").	c #4D7AC7",
"!.	c #3F639F",
"~.	c #3E629F",
"{.	c #4973BA",
"].	c #5483D5",
"^.	c #5384D4",
"/.	c #3F629F",
"(.	c #4E7AC6",
"_.	c #5484D4",
":.	c #7EA2DE",
"<.	c #456DB1",
"[.	c #456CB0",
"}.	c #7CA1DE",
"|.	c #5282D3",
"1.	c #5282D4",
"2.	c #5382D4",
"3.	c #5382D3",
"4.	c #7DA1DE",
"5.	c #446CB0",
"6.	c #436BAF",
"7.	c #7CA0DD",
"8.	c #6690D8",
"9.	c #5280D3",
"0.	c #5180D3",
"a.	c #5181D2",
"b.	c #5180D2",
"c.	c #5181D3",
"d.	c #5280D2",
"e.	c #5281D3",
"f.	c #5281D2",
"g.	c #678FD7",
"h.	c #7C9FDE",
"i.	c #426AAE",
"j.	c #628ACF",
"k.	c #7B9EDD",
"l.	c #7B9EDC",
"m.	c #7B9FDD",
"n.	c #7C9EDD",
"o.	c #4269AE",
"p.	c #4874C0",
"q.	c #4168AD",
"r.	c #4169AE",
"s.	c #4069AD",
"t.	c #4069AE",
"u.	c #416AAE",
". + @ + + + + + + + + + + . # $ ",
"% & * = - ; * ; = ; = - ; > , ' ",
") = ! ~ { ] ~ ] ~ ^ / { ] ( _ : ",
"< [ } | ~ 1 1 ~ } 1 | ~ 2 | 3 4 ",
"5 6 7 8 9 0 a } 7 a 9 0 b c 6 5 ",
"d e f g h i j k l m i h j n e o ",
"p q r l s i i t s i i u v w x p ",
"y z A B C D i E i i F G B A z H ",
"I J K L M N O O O O P M K Q R I ",
"S T U V W O O X W Y O Z `  .T S ",
"..+.@.#.$.%.#.&.&.*.%.$.*.=.-.;.",
">.,.'.).!.~.{.].^.{./.~.(._.:.<.",
"[.}.|.1.2.3.1.2.|.|.1.3.3.3.4.5.",
"6.7.8.9.0.0.a.b.c.d.e.e.f.g.h.6.",
"i.j.k.k.k.l.k.m.k.n.k.k.m.k.j.o.",
"p.q.r.s.t.s.r.q.q.q.s.r.u.q.q.p."};
