/* XPM */
static char * close2_xpm[] = {
"16 16 131 2",
"  	c None",
". 	c #7A9CCF",
"+ 	c #7392C1",
"@ 	c #7492C1",
"# 	c #80A5DE",
"$ 	c #80A5DD",
"% 	c #7291C1",
"& 	c #8BAAD9",
"* 	c #9EB9E3",
"= 	c #9DB9E3",
"- 	c #9DB9E4",
"; 	c #9EB9E4",
"> 	c #84A5D8",
", 	c #7696C8",
"' 	c #80A4DD",
") 	c #8EADE0",
"! 	c #7FA4DD",
"~ 	c #7FA4DC",
"{ 	c #8DADE0",
"] 	c #83A4D8",
"^ 	c #799ACF",
"/ 	c #7291C0",
"( 	c #9CB8E3",
"_ 	c #7EA3DC",
": 	c #7FA3DD",
"< 	c #7FA3DC",
"[ 	c #7EA4DC",
"} 	c #8CADDF",
"| 	c #7596C7",
"1 	c #7290BF",
"2 	c #9BB7E2",
"3 	c #7EA2DC",
"4 	c #799BD2",
"5 	c #6C88B3",
"6 	c #7594C8",
"7 	c #799CD2",
"8 	c #7EA3DB",
"9 	c #7090BF",
"0 	c #9BB6E2",
"a 	c #7DA1DB",
"b 	c #6B87B3",
"c 	c #AEBFDB",
"d 	c #E0E7F1",
"e 	c #6C87B3",
"f 	c #7494C7",
"g 	c #7394C7",
"h 	c #6B88B3",
"i 	c #7CA2DB",
"j 	c #7190BF",
"k 	c #708EBF",
"l 	c #9AB6E1",
"m 	c #7CA1DB",
"n 	c #6B86B3",
"o 	c #6A86B2",
"p 	c #6B86B2",
"q 	c #7294C6",
"r 	c #6F8EBF",
"s 	c #9AB5E1",
"t 	c #7CA0DB",
"u 	c #7BA0DB",
"v 	c #7293C6",
"w 	c #6985B2",
"x 	c #DFE7F1",
"y 	c #6A85B2",
"z 	c #6F8EBE",
"A 	c #6E8BBD",
"B 	c #97B3E0",
"C 	c #799DD9",
"D 	c #799ED9",
"E 	c #7090C5",
"F 	c #6883B1",
"G 	c #DFE6F1",
"H 	c #6884B1",
"I 	c #799DD8",
"J 	c #98B3E1",
"K 	c #6C8BBD",
"L 	c #789CD8",
"M 	c #6F8FC5",
"N 	c #6783B0",
"O 	c #6883B0",
"P 	c #6F8FC4",
"Q 	c #789BD8",
"R 	c #6C8ABC",
"S 	c #96B2DF",
"T 	c #779BD8",
"U 	c #6782B0",
"V 	c #ABBCD8",
"W 	c #DEE5F1",
"X 	c #6F8EC4",
"Y 	c #97B2DF",
"Z 	c #6C89BC",
"` 	c #6B89BC",
" .	c #96B0DF",
"..	c #769AD7",
"+.	c #7193CD",
"@.	c #6682AF",
"#.	c #6681AF",
"$.	c #6E8EC3",
"%.	c #769AD8",
"&.	c #759AD7",
"*.	c #7293CC",
"=.	c #96B1DE",
"-.	c #6B88BC",
";.	c #94B0DE",
">.	c #7599D6",
",.	c #7599D7",
"'.	c #95B0DE",
").	c #6A88BC",
"!.	c #6988BB",
"~.	c #84A4DA",
"{.	c #7597D6",
"].	c #7497D6",
"^.	c #7498D5",
"/.	c #7497D5",
"(.	c #7498D6",
"_.	c #7597D5",
":.	c #7598D6",
"<.	c #7598D5",
"[.	c #85A3D9",
"}.	c #94AFDE",
"|.	c #6987BA",
"1.	c #819FD3",
"2.	c #94AEDE",
"3.	c #94AEDD",
"4.	c #6986BA",
"5.	c #6D8EC8",
"6.	c #6885B9",
"7.	c #6886BA",
"8.	c #6786B9",
"9.	c #6786BA",
"0.	c #6887BA",
". + @ + + + + + + + + + + . # $ ",
"% & * = - ; * ; = ; = - ; > , ' ",
"% = ) ! ~ ! ! ! ! ~ ~ ~ ! { ] ^ ",
"/ ( _ : ! < < ! _ < : ! [ : } | ",
"1 2 3 4 5 5 6 _ 3 6 5 5 7 8 2 1 ",
"9 0 a b c d e f g h d c e i 0 j ",
"k l m g n d d o n d d p q m l k ",
"r s t u v w d x d d y v u t s z ",
"A B C D E F G G G G H E C I J A ",
"K B L M N G G O N G G N P Q B K ",
"R S T U V W U X X U W V U T Y Z ",
"`  ...+.@.#.$.%.&.$.#.#.*...=.` ",
"-.;.>.,.,.>.,.,.>.>.,.>.>.>.'.).",
"!.;.~.{.].].^./.(._.:.:.<.[.}.!.",
"|.1.2.2.2.3.2.}.2.2.2.2.}.2.1.4.",
"5.6.7.8.9.8.7.6.6.6.8.7.0.6.6.5."};
