/* XPM */
static char * max_xpm[] = {
"16 16 124 2",
"  	c None",
". 	c #5986CA",
"+ 	c #5079B7",
"@ 	c #5179B7",
"# 	c #4F78B7",
"$ 	c #7098D7",
"% 	c #87ACE5",
"& 	c #87ACE4",
"* 	c #87ADE5",
"= 	c #88ACE4",
"- 	c #6F99D7",
"; 	c #86ACE4",
"> 	c #739DDF",
", 	c #6091DC",
"' 	c #6090DC",
") 	c #5F90DC",
"! 	c #729DE0",
"~ 	c #4F77B7",
"{ 	c #4E77B6",
"] 	c #86AAE4",
"^ 	c #5F8FDB",
"/ 	c #5E90DB",
"( 	c #5F90DB",
"_ 	c #5E8FDB",
": 	c #5F8FDC",
"< 	c #4E76B6",
"[ 	c #4E76B5",
"} 	c #85AAE4",
"| 	c #5D8EDB",
"1 	c #5886CD",
"2 	c #4C73B2",
"3 	c #466BA4",
"4 	c #466BA5",
"5 	c #4B73B1",
"6 	c #5885CC",
"7 	c #4D76B5",
"8 	c #85A9E3",
"9 	c #5D8EDA",
"0 	c #9EB5D9",
"a 	c #E0E9F7",
"b 	c #4D75B5",
"c 	c #4B75B4",
"d 	c #84A8E2",
"e 	c #5C8CDA",
"f 	c #4569A3",
"g 	c #5C8CD9",
"h 	c #4C74B4",
"i 	c #4A73B4",
"j 	c #82A7E2",
"k 	c #5A8BD9",
"l 	c #4468A3",
"m 	c #DFE8F7",
"n 	c #6488C2",
"o 	c #4468A2",
"p 	c #4368A3",
"q 	c #6488C3",
"r 	c #DFE9F7",
"s 	c #5A8BD8",
"t 	c #83A7E1",
"u 	c #4870B2",
"v 	c #81A4E0",
"w 	c #5787D7",
"x 	c #4165A1",
"y 	c #4266A2",
"z 	c #5787D6",
"A 	c #5788D6",
"B 	c #476FB2",
"C 	c #7FA4E0",
"D 	c #5786D6",
"E 	c #4065A1",
"F 	c #6085C1",
"G 	c #4165A0",
"H 	c #5686D6",
"I 	c #466EB1",
"J 	c #7FA3DF",
"K 	c #5585D5",
"L 	c #456BAD",
"M 	c #9AB1D6",
"N 	c #DEE7F6",
"O 	c #5584D5",
"P 	c #7FA2DF",
"Q 	c #456DB0",
"R 	c #7EA2DF",
"S 	c #5483D4",
"T 	c #4D7AC6",
"U 	c #436AAD",
"V 	c #3E63A0",
"W 	c #3E62A0",
"X 	c #3F639F",
"Y 	c #3F629F",
"Z 	c #446AAD",
"` 	c #7DA2DE",
" .	c #456CB0",
"..	c #7CA1DE",
"+.	c #5382D3",
"@.	c #5282D4",
"#.	c #5282D3",
"$.	c #5382D4",
"%.	c #7DA1DE",
"&.	c #446CAF",
"*.	c #436AAF",
"=.	c #7CA0DE",
"-.	c #678FD7",
";.	c #5281D2",
">.	c #5180D2",
",.	c #5181D3",
"'.	c #5181D2",
").	c #5180D3",
"!.	c #6690D8",
"~.	c #7C9FDD",
"{.	c #436BAE",
"].	c #4369AE",
"^.	c #6D93D3",
"/.	c #7B9EDD",
"(.	c #7B9FDD",
"_.	c #6289CF",
":.	c #426AAE",
"<.	c #4873BF",
"[.	c #4168AD",
"}.	c #416AAE",
"|.	c #4069AD",
"1.	c #4069AE",
"2.	c #4169AD",
"3.	c #4774BF",
". + + @ + + + + + + + + + + + . ",
"# $ % % & & & * % & & = & % - # ",
"# ; > , ' ' ' ) ' , ' ) , ! & ~ ",
"{ ] ) ^ / ( _ ( ^ ^ _ _ _ : ] < ",
"[ } | 1 2 3 3 4 4 3 4 5 6 _ } < ",
"7 8 9 5 0 a a a a a a 0 5 9 8 b ",
"c d e f a a a a a a a a f g d h ",
"i j k l m n o l l p q r o s t i ",
"u v w x m y w w z w x m x A v u ",
"B C D E m F E E E E F m G H C B ",
"I J K L M N N N N N N M L O P I ",
"Q R S T U V W X Y V Y Z T S `  .",
" ...+.@.+.#.@.@.#.+.$.@.$.+.%.&.",
"*.=.-.;.;.>.,.>.>.,.,.'.).!.~.{.",
"].^./.(.(.(././.(.~.(./.(.(._.:.",
"<.[.}.[.|.[.[.|.[.[.1.[.[.|.2.3."};
