/* XPM */
static char * max2_xpm[] = {
"16 16 112 2",
"  	c None",
". 	c #7A9CCF",
"+ 	c #7392C1",
"@ 	c #7492C1",
"# 	c #7291C1",
"$ 	c #8BAAD9",
"% 	c #9DB9E4",
"& 	c #9DB9E3",
"* 	c #9EB9E3",
"= 	c #9CB9E3",
"- 	c #8EADDF",
"; 	c #7FA4DD",
"> 	c #8DADE0",
", 	c #7291C0",
"' 	c #9CB7E3",
") 	c #7FA3DC",
"! 	c #7EA4DC",
"~ 	c #7FA4DC",
"{ 	c #7EA3DC",
"] 	c #7FA3DD",
"^ 	c #7290C0",
"/ 	c #7290BF",
"( 	c #9BB7E3",
"_ 	c #7DA2DC",
": 	c #799CD2",
"< 	c #708EBD",
"[ 	c #6C88B3",
"} 	c #6F8EBC",
"| 	c #799BD1",
"1 	c #7190BF",
"2 	c #9BB6E2",
"3 	c #7DA2DB",
"4 	c #AEBFDB",
"5 	c #E0E7F1",
"6 	c #718FBF",
"7 	c #6F8FBF",
"8 	c #9AB6E1",
"9 	c #7CA1DB",
"0 	c #6B86B2",
"a 	c #708EBF",
"b 	c #6F8EBF",
"c 	c #99B5E1",
"d 	c #7BA0DB",
"e 	c #6A85B2",
"f 	c #DFE6F1",
"g 	c #829EC9",
"h 	c #6A85B1",
"i 	c #6985B2",
"j 	c #829ECA",
"k 	c #DFE7F1",
"l 	c #7BA0DA",
"m 	c #9AB5E1",
"n 	c #6D8BBD",
"o 	c #98B3E0",
"p 	c #799DD9",
"q 	c #6883B0",
"r 	c #6984B1",
"s 	c #799DD8",
"t 	c #799ED8",
"u 	c #6C8BBD",
"v 	c #97B3E0",
"w 	c #799CD8",
"x 	c #6783B0",
"y 	c #7F9BC9",
"z 	c #789CD8",
"A 	c #6C8ABC",
"B 	c #97B2DF",
"C 	c #779BD8",
"D 	c #6B88B9",
"E 	c #ABBCD8",
"F 	c #DEE5F1",
"G 	c #779AD8",
"H 	c #97B1DF",
"I 	c #6B89BC",
"J 	c #96B1DF",
"K 	c #769AD7",
"L 	c #7193CC",
"M 	c #6987B9",
"N 	c #6682B0",
"O 	c #6681B0",
"P 	c #6682AF",
"Q 	c #6681AF",
"R 	c #6A87B9",
"S 	c #95B1DE",
"T 	c #6B88BC",
"U 	c #94B0DE",
"V 	c #7599D6",
"W 	c #7599D7",
"X 	c #95B0DE",
"Y 	c #6A88BB",
"Z 	c #6987BB",
"` 	c #85A3D9",
" .	c #7598D5",
"..	c #7497D5",
"+.	c #7498D6",
"@.	c #7498D5",
"#.	c #7497D6",
"$.	c #84A4DA",
"%.	c #94AFDE",
"&.	c #6988BA",
"*.	c #6986BA",
"=.	c #89A6D6",
"-.	c #94AEDE",
";.	c #819ED3",
">.	c #6987BA",
",.	c #6D8EC7",
"'.	c #6885B9",
").	c #6887BA",
"!.	c #6786B9",
"~.	c #6786BA",
"{.	c #6886B9",
"].	c #6C8EC7",
". + + @ + + + + + + + + + + + . ",
"# $ % % & & & % % & & * & % $ # ",
"# = - ; ; ; ; ; ; ; ; ; ; > & # ",
", ' ; ) ! ~ { ~ ) ) { { { ] ' ^ ",
"/ ( _ : < [ [ [ [ [ [ } | { ( ^ ",
"1 2 3 } 4 5 5 5 5 5 5 4 } 3 2 6 ",
"7 8 9 0 5 5 5 5 5 5 5 5 0 9 8 a ",
"b c d e f g h e e i j k h l m b ",
"n o p q f r p p s p q f q t o n ",
"u v w x f y x x x x y f q z v u ",
"A B C D E F F F F F F E D G H A ",
"I J K L M N O P Q N Q R L K S T ",
"T U V W V V W W V V W W W V X Y ",
"Z U `  . ...+.....+.+.@.#.$.%.&.",
"*.=.-.%.%.%.-.-.%.%.%.-.%.%.;.>.",
",.'.).'.!.'.'.!.'.'.~.'.'.!.{.]."};
