/* XPM */
static char * max3_xpm[] = {
"16 16 72 1",
" 	c None",
".	c #566781",
"+	c #52627A",
"@	c #53627A",
"#	c #5F6E86",
"$	c #67768C",
"%	c #67768B",
"&	c #68768B",
"*	c #5E6E86",
"=	c #607089",
"-	c #586B88",
";	c #5F708A",
">	c #52617A",
",	c #51617A",
"'	c #67758B",
")	c #516179",
"!	c #576A88",
"~	c #556782",
"{	c #516078",
"]	c #4E5D73",
"^	c #506078",
"/	c #576A87",
"(	c #707987",
"_	c #8A8D93",
":	c #516079",
"<	c #506079",
"[	c #66748A",
"}	c #576987",
"|	c #4E5C72",
"1	c #566987",
"2	c #4E5B72",
"3	c #898D93",
"4	c #5A687E",
"5	c #4D5B72",
"6	c #5A687F",
"7	c #4F5F78",
"8	c #65738A",
"9	c #556786",
"0	c #4C5A71",
"a	c #556886",
"b	c #4F5E78",
"c	c #64738A",
"d	c #58677E",
"e	c #4E5E78",
"f	c #647289",
"g	c #546785",
"h	c #4E5D76",
"i	c #6F7886",
"j	c #898C92",
"k	c #546685",
"l	c #4E5D77",
"m	c #516280",
"n	c #4D5C76",
"o	c #4B5A71",
"p	c #4B5971",
"q	c #4C5971",
"r	c #4E5C76",
"s	c #637189",
"t	c #536685",
"u	c #647189",
"v	c #4D5C77",
"w	c #5B6B86",
"x	c #536584",
"y	c #536585",
"z	c #5B6B87",
"A	c #4D5D76",
"B	c #5D6C85",
"C	c #637089",
"D	c #596883",
"E	c #4F607D",
"F	c #4C5B76",
"G	c #4C5C76",
".++@+++++++++++.",
"+#$$%%%$$%%&%$*+",
"+%=----------;%>",
",'------------',",
")'!~{]]]]]]^~-',",
")'/^(______(^/':",
"<[}|________|}[:",
"<[123422256321[<",
"7890359999030a87",
"bc903d0000d309cb",
"efghijjjjjjihkfe",
"lfkmnop0qoqrmkfl",
"lsttttttttttttul",
"vswxxxyxxyyxyzsA",
"nBCsssCCsssCssDn",
"EFGFGFFGFFGFFGGE"};
