/* XPM */
static char * min_xpm[] = {
"16 16 118 2",
"  	c None",
". 	c #5986CA",
"+ 	c #5079B7",
"@ 	c #5179B7",
"# 	c #4F78B7",
"$ 	c #6F98D7",
"% 	c #88ACE5",
"& 	c #87ACE4",
"* 	c #87ADE4",
"= 	c #87ACE5",
"- 	c #88ACE4",
"; 	c #88ADE4",
"> 	c #7AA0DA",
", 	c #86ABE4",
"' 	c #729EDF",
") 	c #5F91DC",
"! 	c #6091DC",
"~ 	c #6090DC",
"{ 	c #5F90DC",
"] 	c #5F90DB",
"^ 	c #729EE0",
"/ 	c #87ABE4",
"( 	c #4F77B7",
"_ 	c #4E77B6",
": 	c #85AAE4",
"< 	c #5F8FDB",
"[ 	c #5E8FDC",
"} 	c #5E8FDB",
"| 	c #5F8FDC",
"1 	c #85ABE4",
"2 	c #4E76B6",
"3 	c #4D76B6",
"4 	c #5E8EDB",
"5 	c #5E8EDA",
"6 	c #5E8FDA",
"7 	c #5D8EDB",
"8 	c #5D8FDA",
"9 	c #4E76B5",
"0 	c #4D76B5",
"a 	c #84A9E3",
"b 	c #5C8EDA",
"c 	c #5D8DDA",
"d 	c #5C8DDA",
"e 	c #5D8EDA",
"f 	c #85AAE3",
"g 	c #4B74B4",
"h 	c #84A8E3",
"i 	c #5C8CD9",
"j 	c #5C8CDA",
"k 	c #5B8CDA",
"l 	c #84A9E2",
"m 	c #4A72B3",
"n 	c #82A7E1",
"o 	c #598AD8",
"p 	c #5989D8",
"q 	c #5A8AD8",
"r 	c #5A89D8",
"s 	c #4A71B2",
"t 	c #81A6E1",
"u 	c #5988D7",
"v 	c #5380C9",
"w 	c #476FAF",
"x 	c #4267A2",
"y 	c #4266A2",
"z 	c #4366A2",
"A 	c #486FB0",
"B 	c #527FCA",
"C 	c #5888D7",
"D 	c #82A5E1",
"E 	c #4971B2",
"F 	c #4871B2",
"G 	c #81A4E0",
"H 	c #5787D7",
"I 	c #476EAF",
"J 	c #B9C9E3",
"K 	c #DFE8F7",
"L 	c #5787D6",
"M 	c #476FB1",
"N 	c #7FA4E0",
"O 	c #5686D5",
"P 	c #466DAE",
"Q 	c #B9C8E3",
"R 	c #DFE7F7",
"S 	c #466EB2",
"T 	c #7FA2DF",
"U 	c #5585D5",
"V 	c #4F7CC7",
"W 	c #456CAD",
"X 	c #4064A0",
"Y 	c #466EB1",
"Z 	c #456CAF",
"` 	c #7CA1DE",
" .	c #5282D3",
"..	c #5382D4",
"+.	c #5382D3",
"@.	c #5282D4",
"#.	c #446CAF",
"$.	c #436AAF",
"%.	c #7CA0DE",
"&.	c #678FD7",
"*.	c #5181D3",
"=.	c #5280D2",
"-.	c #5180D3",
";.	c #5281D3",
">.	c #678FD8",
",.	c #436BAE",
"'.	c #4369AE",
").	c #6289CF",
"!.	c #7C9EDD",
"~.	c #7B9EDD",
"{.	c #7B9FDD",
"].	c #7C9FDD",
"^.	c #4269AE",
"/.	c #4774BF",
"(.	c #4168AD",
"_.	c #4169AE",
":.	c #4069AD",
"<.	c #4873BF",
". + + + + + @ + + + @ + + + + . ",
"# $ % & * & = & * - & % = ; > # ",
"# , ' ) ! ~ { { { ) ) { ] ^ / ( ",
"_ : < [ } < | } | } < < < | 1 2 ",
"3 : 4 5 4 4 6 6 7 4 5 4 7 8 : 9 ",
"0 a b c c c b c c d e c e d f 0 ",
"g h i j i i j i i j k i i k l g ",
"m n o p o q q q o r q q o o n m ",
"s t u v w x y x y z x A B C D E ",
"F G H I J K K K K K K J I L G F ",
"M N O P Q K R K K K K Q P O N M ",
"S T U V W X X X X X X W V U T Y ",
"Z `  ...+.@.+.+.@. .@.@. ...` #.",
"$.%.&.*.*.=.=.-.;.-.*.*.*.>.%.,.",
"'.).!.~.{.~.~.{.~.~.].{.{.].).^.",
"/.(.(._.:.(.(.(.(._.(.(.:.(._.<."};
