/* XPM */
static char * min2_xpm[] = {
"16 16 99 2",
"  	c None",
". 	c #7A9CCF",
"+ 	c #7392C1",
"@ 	c #7492C1",
"# 	c #7291C1",
"$ 	c #8BAAD9",
"% 	c #9DB9E4",
"& 	c #9DB9E3",
"* 	c #93B0DB",
"= 	c #9CB8E3",
"- 	c #8DAEDF",
"; 	c #7EA4DD",
"> 	c #7FA4DD",
", 	c #7FA3DD",
"' 	c #7EA3DD",
") 	c #7EA3DC",
"! 	c #8DAEE0",
"~ 	c #9DB8E3",
"{ 	c #7291C0",
"] 	c #9BB7E3",
"^ 	c #9BB8E3",
"/ 	c #7290C0",
"( 	c #7190C0",
"_ 	c #7EA2DC",
": 	c #7EA2DB",
"< 	c #7EA3DB",
"[ 	c #7DA2DC",
"} 	c #7DA3DB",
"| 	c #7290BF",
"1 	c #7190BF",
"2 	c #9AB6E2",
"3 	c #7CA2DB",
"4 	c #7DA1DB",
"5 	c #7CA1DB",
"6 	c #7DA2DB",
"7 	c #9BB7E2",
"8 	c #6F8EBF",
"9 	c #7CA0DB",
"0 	c #7BA0DB",
"a 	c #9AB6E1",
"b 	c #6F8DBE",
"c 	c #99B5E1",
"d 	c #7A9FDA",
"e 	c #7A9EDA",
"f 	c #7B9FDA",
"g 	c #7B9EDA",
"h 	c #6F8CBD",
"i 	c #98B4E1",
"j 	c #7A9DD9",
"k 	c #7597CF",
"l 	c #6C8BBB",
"m 	c #6985B1",
"n 	c #6984B1",
"o 	c #6D8BBC",
"p 	c #799DD9",
"q 	c #99B3E1",
"r 	c #6E8CBD",
"s 	c #6D8CBD",
"t 	c #98B3E0",
"u 	c #789DD9",
"v 	c #6C8ABB",
"w 	c #C2CFE2",
"x 	c #DFE6F1",
"y 	c #789DD8",
"z 	c #6C8BBC",
"A 	c #97B3E0",
"B 	c #789CD8",
"C 	c #6C89BA",
"D 	c #C2CEE2",
"E 	c #DFE5F1",
"F 	c #6C8ABD",
"G 	c #97B1DF",
"H 	c #779BD8",
"I 	c #7294CD",
"J 	c #6B88B9",
"K 	c #6782B0",
"L 	c #6C8ABC",
"M 	c #6B88BB",
"N 	c #94B0DE",
"O 	c #7599D6",
"P 	c #7599D7",
"Q 	c #6A88BB",
"R 	c #6987BB",
"S 	c #85A3D9",
"T 	c #7498D6",
"U 	c #7597D5",
"V 	c #7497D6",
"W 	c #7598D6",
"X 	c #85A3DA",
"Y 	c #6988BA",
"Z 	c #6986BA",
"` 	c #819ED3",
" .	c #94AEDE",
"..	c #94AFDE",
"+.	c #6C8EC7",
"@.	c #6885B9",
"#.	c #6886BA",
"$.	c #6786B9",
"%.	c #6D8EC7",
". + + + + + @ + + + @ + + + + . ",
"# $ % & & & % & & & & % % & * # ",
"# = - ; > , ' ' ' ; ; ' ) ! ~ # ",
"{ ] ) ' ) ) ' ) ' ) ) ) ) ' ^ / ",
"( ] _ : _ _ < < [ _ : _ [ } ] | ",
"1 2 3 4 4 4 3 4 4 5 6 4 6 5 7 1 ",
"8 2 9 9 9 9 9 9 9 9 0 9 9 0 a 8 ",
"b c d e d f f f d g f f d d c b ",
"h i j k l m n m n n m o k p q r ",
"s t u v w x x x x x x w v y t s ",
"z A B C D x E x x x x D C B A z ",
"F G H I J K K K K K K J I H G L ",
"M N O P O P O O P O P P O P N Q ",
"R N S T T U U V W V T T T X N Y ",
"Z `  . ... . ... . .........` Z ",
"+.@.@.#.$.@.@.@.@.#.@.@.$.@.#.%."};
