/* XPM */
static char * min2_xpm[] = {
"16 16 70 1",
" 	c None",
".	c #566781",
"+	c #52627A",
"@	c #53627A",
"#	c #5E6E86",
"$	c #68768C",
"%	c #67768B",
"&	c #67768C",
"*	c #68768B",
"=	c #627187",
"-	c #67758B",
";	c #5F7089",
">	c #586B88",
",	c #5F708A",
"'	c #52617A",
")	c #51617A",
"!	c #586A88",
"~	c #586A87",
"{	c #586B87",
"]	c #576A88",
"^	c #576B87",
"/	c #516179",
"(	c #66758B",
"_	c #576A87",
":	c #506079",
"<	c #66748B",
"[	c #576987",
"}	c #566987",
"|	c #66758A",
"1	c #505F78",
"2	c #66748A",
"3	c #566887",
"4	c #65738A",
"5	c #566886",
"6	c #536581",
"7	c #4F5E77",
"8	c #4D5B72",
"9	c #536481",
"0	c #556886",
"a	c #66738A",
"b	c #4F5F78",
"c	c #556786",
"d	c #7B818B",
"e	c #898D93",
"f	c #4F5E78",
"g	c #64738A",
"h	c #556785",
"i	c #4E5D76",
"j	c #7B808B",
"k	c #898C93",
"l	c #4E5E78",
"m	c #647289",
"n	c #546785",
"o	c #526380",
"p	c #4C5A71",
"q	c #4E5D77",
"r	c #637189",
"s	c #536685",
"t	c #4D5C77",
"u	c #5B6B86",
"v	c #536585",
"w	c #536584",
"x	c #5B6B87",
"y	c #4D5D76",
"z	c #4D5C76",
"A	c #596883",
"B	c #637089",
"C	c #4F607D",
"D	c #4C5B76",
"E	c #4C5C76",
".+++++@+++@++++.",
"+#$%%%&%%*%$&*=+",
"+-;>>>>>>>>>>,-'",
")->>>>>>>>>>>>-)",
")-!~!!{{]!~!]^-/",
"/(____________-/",
":<[[[[[[[[}[[}|:",
"12}3}}}}}3}}}}21",
"14567888888790a1",
"b4c7deeeeeed7c4b",
"fghijekeeeejihgf",
"lmnoippppppionml",
"qrssssssssssssrq",
"truvvwwvvvvvvxry",
"zABBrBBrBBrrrrAz",
"CDDEEDDDDEDDEDEC"};
